{
    "asset" : {
        "generator" : "Khronos glTF Blender I/O v1.1.45",
        "version" : "2.0"
    },
    "scene" : 0,
    "scenes" : [
        {
            "name" : "Scene",
            "nodes" : [
                0
            ]
        }
    ],
    "nodes" : [
        {
            "mesh" : 0,
            "name" : "reed",
            "rotation" : [
                0.7071068286895752,
                0,
                0,
                0.7071067094802856
            ]
        }
    ],
    "materials" : [
        {
            "doubleSided" : true,
            "emissiveFactor" : [
                0,
                0,
                0
            ],
            "name" : "cork",
            "pbrMetallicRoughness" : {
                "baseColorFactor" : [
                    1,
                    1,
                    1,
                    1
                ],
                "metallicFactor" : 0,
                "roughnessFactor" : 1
            }
        },
        {
            "doubleSided" : true,
            "emissiveFactor" : [
                0,
                0,
                0
            ],
            "name" : "wood",
            "pbrMetallicRoughness" : {
                "baseColorFactor" : [
                    1,
                    1,
                    1,
                    1
                ],
                "metallicFactor" : 0,
                "roughnessFactor" : 1
            }
        },
        {
            "doubleSided" : true,
            "emissiveFactor" : [
                0,
                0,
                0
            ],
            "name" : "twine",
            "pbrMetallicRoughness" : {
                "baseColorFactor" : [
                    1,
                    1,
                    1,
                    1
                ],
                "metallicFactor" : 1,
                "roughnessFactor" : 1
            }
        },
        {
            "emissiveFactor" : [
                0,
                0,
                0
            ],
            "name" : "metal",
            "pbrMetallicRoughness" : {
                "baseColorFactor" : [
                    1,
                    1,
                    1,
                    1
                ],
                "metallicFactor" : 1,
                "roughnessFactor" : 1
            }
        }
    ],
    "meshes" : [
        {
            "name" : "_-0",
            "primitives" : [
                {
                    "attributes" : {
                        "POSITION" : 0,
                        "NORMAL" : 1,
                        "TEXCOORD_0" : 2
                    },
                    "indices" : 3,
                    "material" : 0
                },
                {
                    "attributes" : {
                        "POSITION" : 4,
                        "NORMAL" : 5,
                        "TEXCOORD_0" : 6
                    },
                    "indices" : 7,
                    "material" : 1
                },
                {
                    "attributes" : {
                        "POSITION" : 8,
                        "NORMAL" : 9,
                        "TEXCOORD_0" : 10
                    },
                    "indices" : 11,
                    "material" : 2
                },
                {
                    "attributes" : {
                        "POSITION" : 12,
                        "NORMAL" : 13,
                        "TEXCOORD_0" : 14
                    },
                    "indices" : 15,
                    "material" : 3
                }
            ]
        }
    ],
    "accessors" : [
        {
            "bufferView" : 0,
            "componentType" : 5126,
            "count" : 1836,
            "max" : [
                0.908710241317749,
                0.9082443118095398,
                5.590428352355957
            ],
            "min" : [
                -0.9081570506095886,
                -0.9082443118095398,
                -1.025072455406189
            ],
            "type" : "VEC3"
        },
        {
            "bufferView" : 1,
            "componentType" : 5126,
            "count" : 1836,
            "type" : "VEC3"
        },
        {
            "bufferView" : 2,
            "componentType" : 5126,
            "count" : 1836,
            "type" : "VEC2"
        },
        {
            "bufferView" : 3,
            "componentType" : 5123,
            "count" : 10176,
            "type" : "SCALAR"
        },
        {
            "bufferView" : 4,
            "componentType" : 5126,
            "count" : 264,
            "max" : [
                0.4703971743583679,
                0.796826958656311,
                -4.656118392944336
            ],
            "min" : [
                -0.47047632932662964,
                -0.796826958656311,
                -10.032567977905273
            ],
            "type" : "VEC3"
        },
        {
            "bufferView" : 5,
            "componentType" : 5126,
            "count" : 264,
            "type" : "VEC3"
        },
        {
            "bufferView" : 6,
            "componentType" : 5126,
            "count" : 264,
            "type" : "VEC2"
        },
        {
            "bufferView" : 7,
            "componentType" : 5123,
            "count" : 1320,
            "type" : "SCALAR"
        },
        {
            "bufferView" : 8,
            "componentType" : 5126,
            "count" : 301,
            "max" : [
                0.7367598414421082,
                0.7367593050003052,
                5.628913402557373
            ],
            "min" : [
                -0.7367591857910156,
                -0.7367592453956604,
                -4.6561503410339355
            ],
            "type" : "VEC3"
        },
        {
            "bufferView" : 9,
            "componentType" : 5126,
            "count" : 301,
            "type" : "VEC3"
        },
        {
            "bufferView" : 10,
            "componentType" : 5126,
            "count" : 301,
            "type" : "VEC2"
        },
        {
            "bufferView" : 11,
            "componentType" : 5123,
            "count" : 1152,
            "type" : "SCALAR"
        },
        {
            "bufferView" : 12,
            "componentType" : 5126,
            "count" : 264,
            "max" : [
                0.5429552793502808,
                0.5429552793502808,
                -1.6326625347137451
            ],
            "min" : [
                -0.542955219745636,
                -0.5429552793502808,
                -4.728229999542236
            ],
            "type" : "VEC3"
        },
        {
            "bufferView" : 13,
            "componentType" : 5126,
            "count" : 264,
            "type" : "VEC3"
        },
        {
            "bufferView" : 14,
            "componentType" : 5126,
            "count" : 264,
            "type" : "VEC2"
        },
        {
            "bufferView" : 15,
            "componentType" : 5123,
            "count" : 1344,
            "type" : "SCALAR"
        }
    ],
    "bufferViews" : [
        {
            "buffer" : 0,
            "byteLength" : 22032,
            "byteOffset" : 0
        },
        {
            "buffer" : 0,
            "byteLength" : 22032,
            "byteOffset" : 22032
        },
        {
            "buffer" : 0,
            "byteLength" : 14688,
            "byteOffset" : 44064
        },
        {
            "buffer" : 0,
            "byteLength" : 20352,
            "byteOffset" : 58752
        },
        {
            "buffer" : 0,
            "byteLength" : 3168,
            "byteOffset" : 79104
        },
        {
            "buffer" : 0,
            "byteLength" : 3168,
            "byteOffset" : 82272
        },
        {
            "buffer" : 0,
            "byteLength" : 2112,
            "byteOffset" : 85440
        },
        {
            "buffer" : 0,
            "byteLength" : 2640,
            "byteOffset" : 87552
        },
        {
            "buffer" : 0,
            "byteLength" : 3612,
            "byteOffset" : 90192
        },
        {
            "buffer" : 0,
            "byteLength" : 3612,
            "byteOffset" : 93804
        },
        {
            "buffer" : 0,
            "byteLength" : 2408,
            "byteOffset" : 97416
        },
        {
            "buffer" : 0,
            "byteLength" : 2304,
            "byteOffset" : 99824
        },
        {
            "buffer" : 0,
            "byteLength" : 3168,
            "byteOffset" : 102128
        },
        {
            "buffer" : 0,
            "byteLength" : 3168,
            "byteOffset" : 105296
        },
        {
            "buffer" : 0,
            "byteLength" : 2112,
            "byteOffset" : 108464
        },
        {
            "buffer" : 0,
            "byteLength" : 2688,
            "byteOffset" : 110576
        }
    ],
    "buffers" : [
        {
            "byteLength" : 113264,
            "uri" : "data:application/octet-stream;base64,"
        }
    ]
}
